<svg xmlns="http://www.w3.org/2000/svg" width="933.333" height="933.333" viewBox="0 0 700.000000 700.000000"><path d="M333 23c-29.6 1.6-56 6.5-82.9 15.2C149.3 70.7 70.7 149.3 38.2 250.1c-20.7 64-20.7 135.8 0 199.8 32.5 100.8 111.1 179.4 211.9 211.9 64 20.7 135.8 20.7 199.8 0 100.8-32.5 179.4-111.1 211.9-211.9 20.7-64 20.7-135.8 0-199.8C622.6 128.7 517.1 41 390.9 25.1c-7.4-1-42.5-3.3-43.9-2.9-.3 0-6.6.4-14 .8zm26 57.5c1.9 1.3 25.1 18.7 51.5 38.7 34.4 26.1 48.1 37 48.6 38.8 1.1 4.1 1 44.6-.1 47.6-1.4 3.5-3.8 5.3-7.1 5.4-1.9 0-12.7-7.6-39-27.5-38.9-29.4-39.8-29.9-44.6-25.3l-2.3 2.1v72.9c0 40 .2 72.8.5 72.8 2.7 0 11.3-5.7 16.5-10.9 9.6-9.7 11.5-14.3 14.9-36.1 1.3-8.3 5-13.5 12.2-17.3 4.6-2.5 6.3-2.8 11.5-2.5 8.1.5 14.7 4.4 18.9 11.2l3 4.9v189.2l-2.2 4c-10.2 19-38.7 15.3-43.2-5.6-.7-3.1-1.1-22-1.1-51 0-37.6-.3-46.5-1.4-48.7-4.7-8.9-16.4-11.6-23.7-5.5-6.3 5.3-5.9-1.8-5.9 113.5 0 57.9-.4 109.2-.9 113.9-2.4 22.4-14.6 40.7-33.5 50.3-9.6 4.8-17.2 6.6-28.6 6.6-28.2 0-50.5-16.2-59.4-43.1-4.7-14.2-3.6-31.6 3-45.5 5.8-12.3 16.6-23.3 29-29.3 16.1-8 38.4-8.2 53.6-.5l4.8 2.5-.2-81.5-.3-81.5-3.5-3.6c-8.2-8.4-21.9-5.9-25.9 4.8-.7 1.9-1.1 18.8-1.1 49.1 0 50-.2 52.2-5.4 59-3.6 4.8-11.7 8.6-18 8.6-8.9-.1-16.8-4.8-20.9-12.5l-2.2-4V255.3l3-4.9c4.2-6.8 10.8-10.7 18.9-11.2 5.2-.3 6.9 0 11.5 2.5 7.2 3.8 10.9 9 12.2 17.3 2.4 15.7 3.3 18.9 6.6 25.3 4.1 7.7 12.6 16.2 19.7 19.5 2.5 1.2 4.8 2.2 5.1 2.2.3 0 .5-47.5.5-105.5 0-70.1.4-107 1.1-110.3 1.1-5.6 5.6-10.9 9.8-11.8 1.4-.3 3.1-.7 3.6-.9 2.1-.6 7.2.8 10.5 3zM216.8 293c1.8 1.1 4.1 3.4 5.2 5.2 1.9 3.2 2 5.2 2 51.8 0 46.6-.1 48.6-2 51.8-3.2 5.3-7.5 7.4-14.3 6.9-4.9-.3-6.2-.8-9.2-3.7-2-1.9-4-5.1-4.6-7.2-.6-2.5-.9-20.7-.7-50.1.3-43.7.4-46.5 2.2-49.2 1.9-3 4.7-5.4 7.6-6.7 3.2-1.4 10.5-.8 13.8 1.2zm283.4.5c1.5 1.1 3.5 3.3 4.5 5 1.7 2.8 1.8 6.2 1.8 51.5s-.1 48.7-1.8 51.5c-3 4.8-6.5 6.9-12.7 7.3-6.5.4-10.8-1.8-14-7-1.9-3.2-2-5.2-2-51.8 0-46.6.1-48.6 2-51.8 3.2-5.2 7.5-7.4 14-7 3.5.3 6.6 1.1 8.2 2.3zm-346 43.2c9.5 5.7 9.5 20.9 0 26.5-4.1 2.4-11.8 2.3-16-.2-13.2-8-7.4-28 8.1-28 2.9 0 6.1.7 7.9 1.7zm407.6.3c4.5 2.8 7.2 7.6 7.2 13 0 15.3-20.7 20.9-28.5 7.7-2.2-3.7-2.2-11.6 0-15.4 4.2-7.1 14.2-9.6 21.3-5.3z"/></svg>
